#!OML:ASF F:\VICON\USERDATA\INSTALL\rory3\rory3.ASF
:FULLY-SPECIFIED
:DEGREES
2721
root 0.138404 15.493 -2.43219 11.069 2.46525 -7.82975
lowerback 37.6893 3.03175 -9.79568
upperback 12.5707 -0.510834 -9.60712
thorax -4.5035 -0.139807 -4.98265
lowerneck -7.08514 -11.3471 -17.1644
upperneck 7.44544 -15.3129 17.6593
head 6.16396 -7.2484 6.96907
rclavicle -3.18055e-014 -7.15625e-014
rhumerus -56.5602 52.8914 -82.1346
rradius 106.526
rwrist -38.1491
rhand 33.4306 9.08097
rfingers 7.12502
rthumb 56.7619 -7.70169
lclavicle -3.18055e-014 -7.15625e-014
lhumerus 61.8981 -26.4191 26.9821
lradius 29.3984
lwrist 2.98378
lhand 12.1132 26.7283
lfingers 7.12502
lthumb 37.1277 52.7596
rfemur -35.6377 6.16084 22.8121
rtibia 38.6925
rfoot -10.2044 -9.29065
rtoes -11.6893
lfemur -39.5321 -2.61644 -5.10849
ltibia 43.2254
lfoot -10.1224 -0.574565
ltoes -12.7575
2722
root 0.14088 15.4943 -2.43463 10.9134 2.31407 -7.78618
lowerback 37.6643 3.03908 -9.79326
upperback 12.755 -0.482634 -9.70427
thorax -4.29259 -0.129802 -5.09732
lowerneck -7.57496 -11.4033 -17.0729
upperneck 7.6184 -15.3475 17.6229
head 6.29745 -7.23726 6.91252
rclavicle -3.49861e-014 -4.92986e-014
rhumerus -55.2506 53.564 -81.6244
rradius 105.735
rwrist -37.7686
rhand 32.2013 9.56244
rfingers 7.12502
rthumb 55.6744 -8.07694
lclavicle -3.49861e-014 -4.92986e-014
lhumerus 61.9507 -26.0805 27.2408
lradius 28.9834
lwrist 2.70243
lhand 12.1788 26.7407
lfingers 7.12502
lthumb 37.1898 52.7559
rfemur -35.4174 6.32148 22.7493
rtibia 38.5922
rfoot -10.1701 -9.35237
rtoes -11.8155
lfemur -39.2663 -2.61421 -5.17806
ltibia 43.1572
lfoot -10.1566 -0.47021
ltoes -12.7995
2723
root 0.14458 15.4969 -2.43679 10.7507 2.08515 -7.63708
lowerback 37.7812 3.08697 -9.96425
upperback 12.6975 -0.527393 -9.86041
thorax -4.39208 -0.14688 -5.16801
lowerneck -7.54059 -11.323 -17.0099
upperneck 7.77829 -15.2692 17.6312
head 6.32264 -7.19611 6.91949
rclavicle -3.49861e-014 -2.38542e-014
rhumerus -54.264 54.3277 -81.763
rradius 105.053
rwrist -36.9258
rhand 31.1642 10.1524
rfingers 7.12502
rthumb 54.7504 -8.1653
lclavicle -3.49861e-014 -2.38542e-014
lhumerus 61.5694 -26.0262 27.7095
lradius 28.6341
lwrist 2.17497
lhand 12.1967 26.8491
lfingers 7.12502
lthumb 37.2067 52.8598
rfemur -35.1853 6.50393 22.5621
rtibia 38.4673
rfoot -10.1069 -9.37806
rtoes -11.9991
lfemur -38.9478 -2.59856 -5.37113
ltibia 43.0744
lfoot -10.2058 -0.365075
ltoes -12.8077
2724
root 0.145039 15.5019 -2.43762 10.652 1.8734 -7.66417
lowerback 37.8075 3.10486 -10.0473
upperback 12.5135 -0.58065 -9.97975
thorax -4.60756 -0.165533 -5.23821
lowerneck -6.98019 -11.1426 -17.1384
upperneck 7.7537 -15.1173 17.8802
head 6.22373 -7.1439 7.07428
rclavicle 6.36111e-015 -3.18055e-015
rhumerus -53.4009 55.1325 -82.4551
rradius 104.34
rwrist -35.9343
rhand 30.2314 10.203
rfingers 7.12502
rthumb 53.9149 -8.69242
lclavicle 6.36111e-015 -3.18055e-015
lhumerus 60.9469 -26.1505 28.2022
lradius 28.3456
lwrist 1.57361
lhand 12.0422 26.8123
lfingers 7.12502
lthumb 37.0607 52.861
rfemur -34.9863 6.74431 22.5568
rtibia 38.2866
rfoot -10.0168 -9.39071
rtoes -11.8704
lfemur -38.7093 -2.4422 -5.38149
ltibia 42.9692
lfoot -10.2091 -0.355958
ltoes -12.9851
2725
root 0.141348 15.5104 -2.43429 10.4505 1.60047 -7.81274
lowerback 37.8642 3.24106 -10.1335
upperback 12.4041 -0.479669 -9.99788
thorax -4.73965 -0.117809 -5.25444
lowerneck -6.26215 -11.0415 -17.3824
upperneck 7.5045 -15.0881 18.3353
head 6.07828 -7.1595 7.30549
rclavicle -4.45278e-014 -1.7334e-013
rhumerus -52.2328 55.6855 -83.2057
rradius 103.581
rwrist -34.765
rhand 28.9479 9.96314
rfingers 7.12502
rthumb 52.7586 -9.68088
lclavicle -4.45278e-014 -1.7334e-013
lhumerus 60.5512 -26.2549 28.6102
lradius 28.1313
lwrist 1.06571
lhand 11.9378 26.7773
lfingers 7.12502
lthumb 36.9619 52.8517
rfemur -34.6196 7.06367 22.7136
rtibia 38.0607
rfoot -9.95421 -9.42113
rtoes -11.4764
lfemur -38.3046 -2.18873 -5.27661
ltibia 42.8579
lfoot -10.2222 -0.344563
ltoes -12.9465
2726
root 0.137617 15.5199 -2.42933 10.197 1.33313 -7.85048
lowerback 38.0448 3.449 -10.3232
upperback 12.2973 -0.345315 -9.99447
thorax -4.90094 -0.0546165 -5.21244
lowerneck -5.7804 -10.9995 -17.354
upperneck 7.50641 -15.1152 18.4395
head 6.00758 -7.19289 7.3567
rclavicle 6.04305e-014 -4.92986e-014
rhumerus -51.2074 55.8749 -84.2059
rradius 102.942
rwrist -33.1302
rhand 27.5163 9.72891
rfingers 7.12502
rthumb 51.4607 -10.6917
lclavicle 6.04305e-014 -4.92986e-014
lhumerus 60.3789 -26.5023 28.6928
lradius 28.0425
lwrist 0.940521
lhand 11.8271 26.6851
lfingers 7.12502
lthumb 36.8572 52.7864
rfemur -34.176 7.33981 22.7614
rtibia 37.8082
rfoot -9.95151 -9.40737
rtoes -11.1523
lfemur -37.8248 -2.05197 -5.27209
ltibia 42.7608
lfoot -10.3293 -0.289274
ltoes -12.9958
2727
root 0.137011 15.5239 -2.42836 10.1489 1.24888 -7.95805
lowerback 38.0994 3.53194 -10.2811
upperback 12.1918 -0.252057 -9.93742
thorax -5.03363 -0.00864089 -5.20932
lowerneck -5.65499 -11.028 -17.3521
upperneck 7.7651 -15.1895 18.3551
head 6.07112 -7.2336 7.3241
rclavicle 1.27222e-014 3.33958e-014
rhumerus -50.3594 55.7812 -85.35
rradius 102.402
rwrist -31.5147
rhand 26.0415 10.1855
rfingers 7.12502
rthumb 50.1156 -10.9763
lclavicle 1.27222e-014 3.33958e-014
lhumerus 60.2339 -26.7924 28.8219
lradius 28.0426
lwrist 0.854537
lhand 11.846 26.5776
lfingers 7.12502
lthumb 36.8751 52.6743
rfemur -33.9938 7.43056 22.8865
rtibia 37.5831
rfoot -9.87753 -9.40519
rtoes -11.2048
lfemur -37.6776 -1.98294 -5.15277
ltibia 42.6909
lfoot -10.3479 -0.314187
ltoes -13.0539
